# xmcd
#
# Track frame offsets:
#	150
#	17350
#	31433
#	56496
#	72042
#	90149
#	112814
#	133765
#	150930
#	172427
#	189654
#	208045
#	226246
#	247951
#	263559
#
# Disc length: 3858 seconds
#
# Revision: 0
# Processed by: cddbd v1.5.1PL0 Copyright (c) Steve Scherf et al.
# Submitted via: dBpowerAMP V4.0
#
DISCID=b70f100f
DTITLE=Charlie Boston Band - Best of Bluegrass
DYEAR=2002
DGENRE=Bluegrass
TTITLE0=Wing and a prayer
TTITLE1=N19
TTITLE2=Billy rode to town
TTITLE3=Maybe I'm a dreamer
TTITLE4=Summerfly
TTITLE5=Blue Skies
TTITLE6=The bright lights of town
TTITLE7=Paddy's Green Shamrock Shore
TTITLE8=Don't look back
TTITLE9=Memories
TTITLE10=Another night
TTITLE11=All ablaze
TTITLE12=Diamond back
TTITLE13=As the sun goes down
TTITLE14=Black smoke risin'
EXTD=
EXTT0=
EXTT1=
EXTT2=
EXTT3=
EXTT4=
EXTT5=
EXTT6=
EXTT7=
EXTT8=
EXTT9=
EXTT10=
EXTT11=
EXTT12=
EXTT13=
EXTT14=
PLAYORDER=
